<?xml version="1.0" encoding="UTF-8"?>
<svg xmlns="http://www.w3.org/2000/svg" xmlns:xlink="http://www.w3.org/1999/xlink" width="612pt" height="792pt" viewBox="0 0 612 792">
<defs>
<clipPath id="clip-0">
<path clip-rule="nonzero" d="M 6 6 L 101 6 L 101 84.75 L 6 84.75 Z M 6 6 "/>
</clipPath>
<clipPath id="clip-1">
<path clip-rule="nonzero" d="M 117 15 L 358.5 15 L 358.5 77 L 117 77 Z M 117 15 "/>
</clipPath>
</defs>
<g clip-path="url(#clip-0)">
<path fill-rule="nonzero" fill="rgb(89.019775%, 94.898987%, 99.21875%)" fill-opacity="1" d="M 14.617188 6 L 91.972656 6 C 92.539062 6 93.097656 6.054688 93.652344 6.164062 C 94.203125 6.273438 94.742188 6.4375 95.261719 6.652344 C 95.785156 6.871094 96.28125 7.136719 96.75 7.449219 C 97.21875 7.761719 97.652344 8.117188 98.050781 8.515625 C 98.453125 8.917969 98.808594 9.351562 99.121094 9.820312 C 99.433594 10.289062 99.699219 10.785156 99.914062 11.304688 C 100.132812 11.828125 100.292969 12.363281 100.40625 12.917969 C 100.515625 13.472656 100.570312 14.03125 100.570312 14.59375 L 100.570312 76.484375 C 100.570312 77.046875 100.515625 77.605469 100.40625 78.160156 C 100.292969 78.714844 100.132812 79.25 99.914062 79.773438 C 99.699219 80.292969 99.433594 80.789062 99.121094 81.257812 C 98.808594 81.726562 98.453125 82.160156 98.050781 82.5625 C 97.652344 82.960938 97.21875 83.316406 96.75 83.628906 C 96.28125 83.941406 95.785156 84.207031 95.261719 84.421875 C 94.742188 84.640625 94.203125 84.804688 93.652344 84.914062 C 93.097656 85.023438 92.539062 85.078125 91.972656 85.078125 L 14.617188 85.078125 C 14.050781 85.078125 13.492188 85.023438 12.9375 84.914062 C 12.386719 84.804688 11.847656 84.640625 11.324219 84.421875 C 10.804688 84.207031 10.308594 83.941406 9.839844 83.628906 C 9.371094 83.316406 8.9375 82.960938 8.539062 82.5625 C 8.136719 82.160156 7.78125 81.726562 7.46875 81.257812 C 7.15625 80.789062 6.890625 80.292969 6.675781 79.773438 C 6.457031 79.25 6.296875 78.714844 6.183594 78.160156 C 6.074219 77.605469 6.019531 77.046875 6.019531 76.484375 L 6.019531 14.59375 C 6.019531 14.03125 6.074219 13.472656 6.183594 12.917969 C 6.296875 12.363281 6.457031 11.828125 6.675781 11.304688 C 6.890625 10.785156 7.15625 10.289062 7.46875 9.820312 C 7.78125 9.351562 8.136719 8.917969 8.539062 8.515625 C 8.9375 8.117188 9.371094 7.761719 9.839844 7.449219 C 10.308594 7.136719 10.804688 6.871094 11.324219 6.652344 C 11.847656 6.4375 12.386719 6.273438 12.9375 6.164062 C 13.492188 6.054688 14.050781 6 14.617188 6 Z M 14.617188 6 "/>
</g>
<path fill-rule="nonzero" fill="rgb(0%, 0%, 0%)" fill-opacity="0.1" d="M 60.785156 30.640625 C 69.4375 30.640625 76.410156 37.933594 75.769531 46.664062 C 75.207031 54.675781 68.238281 60.6875 60.226562 60.6875 L 38.59375 60.6875 C 34.667969 60.6875 31.140625 57.800781 30.742188 53.957031 C 30.339844 49.46875 33.867188 45.703125 38.273438 45.703125 C 38.511719 45.703125 38.671875 45.703125 38.914062 45.703125 L 41.796875 45.945312 C 43.480469 46.105469 45.082031 45.0625 45.644531 43.460938 L 46.605469 40.738281 C 48.769531 34.726562 54.457031 30.640625 60.785156 30.640625 M 60.785156 23.191406 C 50.929688 23.191406 42.597656 29.519531 39.554688 38.253906 C 39.152344 38.253906 38.671875 38.171875 38.273438 38.171875 C 29.941406 38.171875 23.210938 44.902344 23.210938 53.234375 C 23.210938 61.566406 29.941406 68.296875 38.273438 68.296875 L 60.785156 68.296875 C 73.285156 68.21875 83.378906 58.121094 83.378906 45.703125 C 83.378906 33.285156 73.285156 23.191406 60.785156 23.191406 Z M 60.785156 23.191406 "/>
<g clip-path="url(#clip-1)">
<path fill-rule="nonzero" fill="rgb(100%, 100%, 100%)" fill-opacity="0.6" d="M 130.316406 31.371094 C 133.851562 31.371094 136.652344 32.175781 138.714844 33.785156 C 140.777344 35.398438 141.871094 37.636719 141.988281 40.507812 L 141.988281 55.476562 C 141.988281 56.894531 142.066406 58.40625 142.222656 60.015625 L 137.507812 60.015625 C 137.390625 58.761719 137.332031 57.34375 137.332031 55.773438 L 137.210938 55.773438 C 135.996094 57.582031 134.589844 58.859375 132.996094 59.605469 C 131.40625 60.351562 129.550781 60.726562 127.425781 60.726562 C 124.558594 60.726562 122.230469 59.957031 120.441406 58.425781 C 118.65625 56.894531 117.761719 54.871094 117.761719 52.355469 C 117.761719 49.171875 119.097656 46.765625 121.769531 45.132812 C 124.441406 43.503906 128.214844 42.6875 133.085938 42.6875 L 137.035156 42.6875 L 137.035156 41.683594 C 137.035156 39.800781 136.417969 38.316406 135.179688 37.234375 C 133.941406 36.15625 132.320312 35.613281 130.316406 35.613281 C 128.824219 35.613281 127.515625 35.839844 126.394531 36.292969 C 125.277344 36.742188 123.949219 37.578125 122.417969 38.796875 L 119.234375 35.496094 C 122.261719 32.824219 125.953125 31.449219 130.316406 31.371094 Z M 123.066406 51.941406 C 123.066406 54.96875 125.070312 56.480469 129.078125 56.480469 C 131.476562 56.480469 133.390625 55.761719 134.824219 54.328125 C 136.257812 52.894531 136.996094 50.820312 137.035156 48.109375 L 137.035156 46.578125 L 134.03125 46.578125 C 130.570312 46.578125 127.878906 47.019531 125.953125 47.902344 C 124.027344 48.789062 123.066406 50.132812 123.066406 51.941406 Z M 164.917969 31.371094 C 169.042969 31.371094 172.414062 32.726562 175.027344 35.4375 C 177.640625 38.148438 178.984375 41.683594 179.0625 46.046875 C 179.0625 50.410156 177.726562 53.9375 175.054688 56.628906 C 172.382812 59.320312 168.984375 60.683594 164.859375 60.726562 C 162.8125 60.726562 160.910156 60.292969 159.140625 59.429688 C 157.371094 58.5625 156.035156 57.425781 155.132812 56.007812 L 155.015625 56.007812 L 155.015625 76.640625 L 149.707031 76.640625 L 149.707031 32.078125 L 155.015625 32.078125 L 155.015625 36.085938 L 155.132812 36.085938 C 156.191406 34.59375 157.589844 33.433594 159.316406 32.609375 C 161.046875 31.78125 162.914062 31.371094 164.917969 31.371094 Z M 155.015625 46.046875 C 155.015625 48.957031 155.867188 51.304688 157.578125 53.089844 C 159.289062 54.878906 161.496094 55.773438 164.210938 55.773438 C 167.039062 55.773438 169.269531 54.878906 170.898438 53.089844 C 172.53125 51.304688 173.367188 48.957031 173.40625 46.046875 C 173.40625 43.140625 172.570312 40.800781 170.898438 39.03125 C 169.230469 37.265625 166.980469 36.359375 164.152344 36.320312 C 161.359375 36.320312 159.140625 37.234375 157.488281 39.0625 C 155.839844 40.890625 155.015625 43.21875 155.015625 46.046875 Z M 200.933594 31.371094 C 205.058594 31.371094 208.429688 32.726562 211.042969 35.4375 C 213.65625 38.148438 215 41.683594 215.078125 46.046875 C 215.078125 50.410156 213.742188 53.9375 211.070312 56.628906 C 208.398438 59.320312 205 60.683594 200.875 60.726562 C 198.828125 60.726562 196.925781 60.292969 195.15625 59.429688 C 193.386719 58.5625 192.050781 57.425781 191.148438 56.007812 L 191.03125 56.007812 L 191.03125 76.640625 L 185.722656 76.640625 L 185.722656 32.078125 L 191.03125 32.078125 L 191.03125 36.085938 L 191.148438 36.085938 C 192.207031 34.59375 193.601562 33.433594 195.332031 32.609375 C 197.0625 31.78125 198.929688 31.371094 200.933594 31.371094 Z M 191.03125 46.046875 C 191.03125 48.957031 191.882812 51.304688 193.59375 53.089844 C 195.304688 54.878906 197.511719 55.773438 200.226562 55.773438 C 203.054688 55.773438 205.285156 54.878906 206.914062 53.089844 C 208.546875 51.304688 209.382812 48.957031 209.421875 46.046875 C 209.421875 43.140625 208.585938 40.800781 206.914062 39.03125 C 205.246094 37.265625 202.996094 36.359375 200.164062 36.320312 C 197.375 36.320312 195.15625 37.234375 193.503906 39.0625 C 191.855469 40.890625 191.03125 43.21875 191.03125 46.046875 Z M 231.171875 31.371094 C 233.292969 31.371094 235.1875 31.761719 236.859375 32.550781 C 238.527344 33.335938 239.816406 34.476562 240.71875 35.96875 L 236.59375 39.09375 C 235.023438 37.246094 233.117188 36.320312 230.875 36.320312 C 229.539062 36.320312 228.429688 36.617188 227.546875 37.207031 C 226.660156 37.796875 226.21875 38.542969 226.21875 39.445312 C 226.21875 41.410156 228.046875 42.746094 231.703125 43.453125 C 235.277344 44.121094 237.800781 45.105469 239.277344 46.402344 C 240.75 47.699219 241.484375 49.542969 241.484375 51.941406 C 241.484375 54.652344 240.453125 56.785156 238.390625 58.335938 C 236.328125 59.890625 233.566406 60.683594 230.109375 60.726562 C 227.515625 60.726562 225.382812 60.320312 223.714844 59.515625 C 222.042969 58.710938 220.601562 57.464844 219.382812 55.773438 L 223.390625 52.472656 C 225.511719 54.671875 227.773438 55.773438 230.167969 55.773438 C 231.742188 55.773438 233.078125 55.460938 234.175781 54.832031 C 235.277344 54.203125 235.828125 53.335938 235.828125 52.238281 C 235.828125 50.3125 234.058594 48.976562 230.523438 48.226562 C 226.59375 47.441406 223.949219 46.390625 222.59375 45.074219 C 221.238281 43.757812 220.5625 42.058594 220.5625 39.976562 C 220.5625 37.382812 221.5625 35.308594 223.566406 33.757812 C 225.570312 32.207031 228.105469 31.410156 231.171875 31.371094 Z M 253.214844 15.453125 L 253.214844 36.378906 L 253.335938 36.378906 C 254.082031 34.808594 255.289062 33.582031 256.960938 32.695312 C 258.628906 31.8125 260.484375 31.371094 262.53125 31.371094 C 265.632812 31.371094 268.101562 32.3125 269.925781 34.199219 C 271.753906 36.085938 272.667969 38.621094 272.667969 41.804688 L 272.667969 60.015625 L 267.363281 60.015625 L 267.363281 43.335938 C 267.363281 41.175781 266.804688 39.464844 265.683594 38.207031 C 264.5625 36.949219 263 36.320312 260.996094 36.320312 C 258.519531 36.320312 256.617188 37.128906 255.28125 38.738281 C 253.945312 40.347656 253.253906 42.570312 253.214844 45.398438 L 253.214844 60.015625 L 247.910156 60.015625 L 247.910156 15.453125 Z M 291.882812 31.371094 C 295.421875 31.371094 298.222656 32.175781 300.285156 33.785156 C 302.347656 35.398438 303.4375 37.636719 303.554688 40.507812 L 303.554688 55.476562 C 303.554688 56.894531 303.632812 58.40625 303.792969 60.015625 L 299.074219 60.015625 C 298.957031 58.761719 298.898438 57.34375 298.898438 55.773438 L 298.78125 55.773438 C 297.5625 57.582031 296.15625 58.859375 294.566406 59.605469 C 292.976562 60.351562 291.117188 60.726562 288.996094 60.726562 C 286.128906 60.726562 283.800781 59.957031 282.011719 58.425781 C 280.222656 56.894531 279.328125 54.871094 279.328125 52.355469 C 279.328125 49.171875 280.664062 46.765625 283.335938 45.132812 C 286.007812 43.503906 289.78125 42.6875 294.65625 42.6875 L 298.605469 42.6875 L 298.605469 41.683594 C 298.605469 39.800781 297.984375 38.316406 296.746094 37.234375 C 295.507812 36.15625 293.886719 35.613281 291.882812 35.613281 C 290.390625 35.613281 289.085938 35.839844 287.964844 36.292969 C 286.84375 36.742188 285.519531 37.578125 283.984375 38.796875 L 280.800781 35.496094 C 283.828125 32.824219 287.523438 31.449219 291.882812 31.371094 Z M 284.632812 51.941406 C 284.632812 54.96875 286.636719 56.480469 290.648438 56.480469 C 293.042969 56.480469 294.960938 55.761719 296.394531 54.328125 C 297.828125 52.894531 298.566406 50.820312 298.605469 48.109375 L 298.605469 46.578125 L 295.597656 46.578125 C 292.140625 46.578125 289.449219 47.019531 287.523438 47.902344 C 285.597656 48.789062 284.632812 50.132812 284.632812 51.941406 Z M 325.070312 31.371094 C 326.054688 31.371094 326.839844 31.488281 327.429688 31.722656 L 327.191406 37.441406 C 326.171875 37.167969 325.285156 37.027344 324.539062 37.027344 C 319.3125 37.027344 316.660156 39.9375 316.582031 45.753906 L 316.582031 60.015625 L 311.277344 60.015625 L 311.277344 32.078125 L 316.582031 32.078125 L 316.582031 36.378906 L 316.699219 36.378906 C 317.40625 34.886719 318.546875 33.679688 320.117188 32.753906 C 321.691406 31.832031 323.339844 31.371094 325.070312 31.371094 Z M 344.816406 31.371094 C 349.101562 31.371094 352.429688 32.714844 354.808594 35.40625 C 357.183594 38.101562 358.394531 41.804688 358.433594 46.519531 L 358.433594 47.992188 L 336.035156 47.992188 C 336.035156 50.273438 336.949219 52.1875 338.773438 53.738281 C 340.601562 55.292969 342.832031 56.085938 345.464844 56.128906 C 348.375 56.128906 350.925781 54.730469 353.128906 51.941406 L 357.136719 55.007812 C 354.148438 58.820312 350.023438 60.726562 344.757812 60.726562 C 340.476562 60.726562 337.027344 59.359375 334.414062 56.628906 C 331.800781 53.898438 330.453125 50.371094 330.375 46.046875 C 330.375 41.882812 331.722656 38.414062 334.414062 35.644531 C 337.105469 32.875 340.574219 31.449219 344.816406 31.371094 Z M 352.773438 43.75 C 352.695312 41.117188 351.949219 39.101562 350.535156 37.707031 C 349.121094 36.3125 347.175781 35.613281 344.699219 35.613281 C 343.046875 35.613281 341.566406 36.015625 340.25 36.824219 C 338.933594 37.628906 337.902344 38.667969 337.152344 39.945312 C 336.40625 41.222656 336.035156 42.492188 336.035156 43.75 Z M 352.773438 43.75 "/>
</g>
</svg>
