<svg width="444.59999999999997" height="179.27767875927736" viewBox="0 0 350 141.13177590136544" class="looka-1j8o68f"><defs id="SvgjsDefs3538"><linearGradient id="SvgjsLinearGradient3545"><stop id="SvgjsStop3546" stop-color="#00ff8f" offset="0"></stop><stop id="SvgjsStop3547" stop-color="#00a1ff" offset="1"></stop></linearGradient><linearGradient id="SvgjsLinearGradient3548"><stop id="SvgjsStop3549" stop-color="#7f00ff" offset="0"></stop><stop id="SvgjsStop3550" stop-color="#e100ff" offset="1"></stop></linearGradient><linearGradient id="SvgjsLinearGradient3551"><stop id="SvgjsStop3552" stop-color="#2d388a" offset="0"></stop><stop id="SvgjsStop3553" stop-color="#00aeef" offset="1"></stop></linearGradient></defs><g id="SvgjsG3539" featurekey="ghXSps-0" transform="matrix(0.28171792221733,0,0,0.28171792221733,125.73328874993935,-32.138654048215166)" fill="url(#SvgjsLinearGradient3551)"><g xmlns="http://www.w3.org/2000/svg"><path d="M175 135.96c7.2 0 13.23 4.79 15.69 11.39q.87 2.35.84 9.22-.05 9.14-.06 18.16 0 9.02.03 18.17.02 6.86-.86 9.21c-2.47 6.6-8.5 11.37-15.71 11.37-7.21-.01-13.23-4.79-15.7-11.4q-.87-2.35-.84-9.21.05-9.14.06-18.17.01-9.02-.03-18.16-.02-6.86.86-9.22c2.47-6.59 8.51-11.37 15.72-11.36M92.33 145.83c9.72.02 16.39 7.41 16.56 16.87q.15 8.78.15 12.07-.01 3.28-.21 12.07c-.22 9.45-6.92 16.81-16.64 16.79-9.72-.03-16.39-7.42-16.56-16.88q-.15-8.78-.14-12.07.01-3.28.2-12.07c.22-9.45 6.93-16.81 16.64-16.78" fill="url(#SvgjsLinearGradient3551)"></path></g><g xmlns="http://www.w3.org/2000/svg"><rect width="33.38" height="120.84" x="-16.69" y="-60.42" rx="16.22" transform="rotate(-.1 100064.989 -76333.826)" fill="url(#SvgjsLinearGradient3545)"></rect><rect width="33.02" height="57.08" x="-16.51" y="-28.54" rx="15.59" transform="rotate(-.1 100276.123 -147569.52)" fill="url(#SvgjsLinearGradient3545)"></rect></g><rect xmlns="http://www.w3.org/2000/svg" width="33.3" height="120.86" x="-16.65" y="-60.43" fill="url(#SvgjsLinearGradient3548)" rx="16.17" transform="rotate(.1 -99918.726 124098.244)"></rect></g><g id="SvgjsG3540" featurekey="anH1Ye-0" transform="matrix(3.8597248741209333,0,0,3.8597248741209333,0.5403618872781836,31.922374529830766)" fill="#FFF" fill-opacity="0.6"><path d="M8.5 5.72 l5.34 14.28 l-3.26 0 l-1.08 -3.18 l-5.34 0 l-1.12 3.18 l-3.18 0 l5.42 -14.28 l3.22 0 z M6.84 9.24 l-1.86 5.24 l3.7 0 l-1.8 -5.24 l-0.04 0 z M20.6 9.38 c1.42666 0 2.56666 0.5 3.42 1.5 s1.28 2.35334 1.28 4.06 c0 1.56 -0.41 2.84 -1.23 3.84 s-1.92334 1.5 -3.31 1.5 c-1.36 0 -2.39334 -0.52 -3.1 -1.56 l-0.04 0 l0 4.92 l-2.84 0 l0 -13.98 l2.7 0 l0 1.32 l0.04 0 c0.68 -1.06666 1.70666 -1.6 3.08 -1.6 z M17.52 14.86 c0 1.01334 0.21336 1.81334 0.64002 2.4 s1.04 0.88 1.84 0.88 c0.82666 0 1.44332 -0.29334 1.84998 -0.88 s0.61 -1.38666 0.61 -2.4 c0 -1.04 -0.22 -1.85666 -0.66 -2.45 s-1.05334 -0.89 -1.84 -0.89 s-1.39 0.29334 -1.81 0.88 s-0.63 1.40666 -0.63 2.46 z M32.82 9.38 c1.42666 0 2.56666 0.5 3.42 1.5 s1.28 2.35334 1.28 4.06 c0 1.56 -0.41 2.84 -1.23 3.84 s-1.92334 1.5 -3.31 1.5 c-1.36 0 -2.39334 -0.52 -3.1 -1.56 l-0.04 0 l0 4.92 l-2.84 0 l0 -13.98 l2.7 0 l0 1.32 l0.04 0 c0.68 -1.06666 1.70666 -1.6 3.08 -1.6 z M29.74 14.86 c0 1.01334 0.21336 1.81334 0.64002 2.4 s1.04 0.88 1.84 0.88 c0.82666 0 1.44332 -0.29334 1.84998 -0.88 s0.61 -1.38666 0.61 -2.4 c0 -1.04 -0.22 -1.85666 -0.66 -2.45 s-1.05334 -0.89 -1.84 -0.89 s-1.39 0.29334 -1.81 0.88 s-0.63 1.40666 -0.63 2.46 z M43.46 9.38 c1.38666 0 2.46992 0.28002 3.24992 0.84002 s1.21666 1.38 1.31 2.46 l-2.7 0 c-0.04 -0.49334 -0.22 -0.85 -0.54 -1.07 s-0.78666 -0.33 -1.4 -0.33 c-0.53334 0 -0.93 0.08 -1.19 0.24 s-0.39 0.4 -0.39 0.72 c0 0.24 0.08666 0.44 0.26 0.6 s0.43668 0.3 0.79002 0.42 s0.74334 0.22 1.17 0.3 c1.29334 0.25334 2.20668 0.51334 2.74002 0.78 s0.92334 0.58666 1.17 0.96 s0.37 0.83334 0.37 1.38 c0 1.16 -0.42334 2.05 -1.27 2.67 s-1.99666 0.93 -3.45 0.93 c-1.52 0 -2.70334 -0.32666 -3.55 -0.98 s-1.28332 -1.54 -1.30998 -2.66 l2.7 0 c0 0.53334 0.20666 0.95668 0.62 1.27002 s0.93334 0.47 1.56 0.47 c0.53334 0 0.97668 -0.11666 1.33002 -0.35 s0.53 -0.55668 0.53 -0.97002 c0 -0.26666 -0.11 -0.48666 -0.33 -0.66 s-0.53 -0.32668 -0.93 -0.46002 s-1.02 -0.28668 -1.86 -0.46002 c-0.66666 -0.13334 -1.26 -0.31334 -1.78 -0.54 s-0.91666 -0.52332 -1.19 -0.88998 s-0.41 -0.81666 -0.41 -1.35 c0 -0.68 0.16334 -1.27334 0.49 -1.78 s0.82666 -0.89 1.5 -1.15 s1.51 -0.39 2.51 -0.39 z M52.8 5.72 l0 5.38 l0.06 0 c0.32 -0.53334 0.75334 -0.95334 1.3 -1.26 s1.12666 -0.46 1.74 -0.46 c1.32 0 2.27666 0.33334 2.87 1 s0.89 1.72 0.89 3.16 l0 6.46 l-2.84 0 l0 -5.88 c0 -0.84 -0.13666 -1.46666 -0.41 -1.88 s-0.74334 -0.62 -1.41 -0.62 c-0.76 0 -1.31666 0.23 -1.67 0.69 s-0.53 1.21666 -0.53 2.27 l0 5.42 l-2.84 0 l0 -14.28 l2.84 0 z M66.58 9.38 c3.01334 0.01334 4.52 0.9933 4.52 2.93996 l0 5.48 c0 1.01334 0.12 1.74668 0.36 2.20002 l-2.88 0 c-0.10666 -0.32 -0.17332 -0.65334 -0.19998 -1 c-0.84 0.85334 -2 1.28 -3.48 1.28 c-1.08 0 -1.93666 -0.27334 -2.57 -0.82 s-0.95 -1.30666 -0.95 -2.28 c0 -0.94666 0.3 -1.68 0.9 -2.2 c0.61334 -0.54666 1.72668 -0.89332 3.34002 -1.03998 c1.14666 -0.12 1.87332 -0.27 2.17998 -0.45 s0.46 -0.45666 0.46 -0.83 c0 -0.46666 -0.14 -0.81332 -0.42 -1.03998 s-0.74666 -0.34 -1.4 -0.34 c-0.6 0 -1.05334 0.12334 -1.36 0.37 s-0.48666 0.64332 -0.54 1.18998 l-2.84 0 c0.06666 -1.13334 0.53332 -1.99334 1.39998 -2.58 s2.02666 -0.88 3.48 -0.88 z M64.22 17.05996 c0 0.88 0.58 1.32 1.74 1.32 c1.52 -0.01334 2.28666 -0.79334 2.3 -2.34 l0 -1.1 c-0.22666 0.22666 -0.8 0.39332 -1.72 0.49998 c-0.8 0.09334 -1.38666 0.25668 -1.76 0.49002 s-0.56 0.61 -0.56 1.13 z M79.34 9.38 c0.24 0 0.44668 0.03334 0.62002 0.1 l0 2.64 c-0.30666 -0.06666 -0.64666 -0.1 -1.02 -0.1 c-1.86666 0 -2.8 1.10666 -2.8 3.32 l0 4.66 l-2.84 0 l0 -10.34 l2.7 0 l0 1.92 l0.04 0 c0.28 -0.66666 0.72334 -1.2 1.33 -1.6 s1.26332 -0.6 1.96998 -0.6 z M85.5 9.38 c0.97334 0 1.84004 0.22664 2.60004 0.67998 s1.35666 1.11 1.79 1.97 s0.65 1.85 0.65 2.97 c0 0.10666 -0.00666 0.28 -0.02 0.52 l-7.46 0 c0.02666 0.82666 0.24332 1.47 0.64998 1.93 s1.03 0.69 1.87 0.69 c0.52 0 0.99666 -0.13 1.43 -0.39 s0.71 -0.57666 0.83 -0.95 l2.5 0 c-0.73334 2.32 -2.34668 3.48 -4.84002 3.48 c-0.94666 -0.01334 -1.82332 -0.22 -2.62998 -0.62 s-1.45 -1.02334 -1.93 -1.87 s-0.72 -1.83 -0.72 -2.95 c0 -1.05334 0.24334 -2.01334 0.73 -2.88 s1.13332 -1.51332 1.93998 -1.93998 s1.67666 -0.64 2.61 -0.64 z M87.68004 13.71998 c-0.13334 -0.77334 -0.38 -1.33334 -0.74 -1.68 s-0.87334 -0.52 -1.54 -0.52 c-0.69334 0 -1.24 0.19666 -1.64 0.59 s-0.63334 0.93 -0.7 1.61 l4.62 0 z"></path></g><g id="SvgjsG3541" featurekey="XxVAgm-0" transform="matrix(0.5019613335536302,0,0,0.5019613335536302,34.59843107676939,130.94196121319285)" fill="#5893d4"><path d="M5.18 20 l-4.38 -15.6 l4.26 0 l2.52 9.3 l2.92 -9.3 l3.56 0 l2.92 9.28 l2.52 -9.28 l4.28 0 l-4.38 15.6 l-4.14 0 l-2.98 -9.06 l-2.96 9.06 l-4.14 0 z M36.576 20 l0 -15.6 l11.98 0 l0 3.88 l-7.98 0 l0 2.24 l5.62 0 l0 3.62 l-5.62 0 l0 2 l7.98 0 l0 3.86 l-11.98 0 z M61.352 20 l0 -15.6 l7.76 0 c1.62 0 2.88 0.4 3.76 1.2 c0.86 0.8 1.3 1.86 1.3 3.2 c0 1.52 -0.64 2.64 -1.9 3.34 c1.26 0.72 1.9 1.94 1.9 3.46 c0 1.34 -0.44 2.4 -1.3 3.2 c-0.88 0.82 -2.14 1.2 -3.76 1.2 l-7.76 0 z M65.352 10.66 l3.3 0 c0.98 0 1.48 -0.44 1.48 -1.28 c0 -0.38 -0.1 -0.7 -0.32 -0.94 c-0.22 -0.22 -0.52 -0.32 -0.94 -0.32 l-3.52 0 l0 2.54 z M65.352 16.28 l3.52 0 c0.42 0 0.72 -0.1 0.94 -0.32 c0.22 -0.24 0.32 -0.54 0.32 -0.94 c0 -0.84 -0.5 -1.28 -1.48 -1.28 l-3.3 0 l0 2.54 z M105.164 20 l0 -15.6 l6.88 0 c1.96 0 3.48 0.5 4.54 1.5 c1.06 1.02 1.58 2.28 1.58 3.74 c0 1.54 -0.52 2.82 -1.58 3.82 s-2.56 1.52 -4.54 1.52 l-2.88 0 l0 5.02 l-4 0 z M109.164 11.78 l2.66 0 c1.54 0 2.3 -0.7 2.3 -2.12 c0 -0.6 -0.18 -1.08 -0.56 -1.48 s-0.96 -0.58 -1.74 -0.58 l-2.66 0 l0 4.18 z M138.12 20 c-2.26 0 -4.02 -0.64 -5.28 -1.96 c-1.26 -1.3 -1.88 -2.96 -1.88 -5.02 l0 -8.62 l4 0 l0 8.38 c0 1.12 0.26 1.96 0.8 2.54 c0.54 0.6 1.32 0.9 2.36 0.9 s1.84 -0.3 2.38 -0.9 c0.54 -0.58 0.82 -1.42 0.82 -2.54 l0 -8.38 l3.98 0 l0 8.62 c0 2.04 -0.64 3.7 -1.9 5.02 s-3.02 1.96 -5.28 1.96 z M158.096 20 l0 -15.6 l7.76 0 c1.62 0 2.88 0.4 3.76 1.2 c0.86 0.8 1.3 1.86 1.3 3.2 c0 1.52 -0.64 2.64 -1.9 3.34 c1.26 0.72 1.9 1.94 1.9 3.46 c0 1.34 -0.44 2.4 -1.3 3.2 c-0.88 0.82 -2.14 1.2 -3.76 1.2 l-7.76 0 z M162.096 10.66 l3.3 0 c0.98 0 1.48 -0.44 1.48 -1.28 c0 -0.38 -0.1 -0.7 -0.32 -0.94 c-0.22 -0.22 -0.52 -0.32 -0.94 -0.32 l-3.52 0 l0 2.54 z M162.096 16.28 l3.52 0 c0.42 0 0.72 -0.1 0.94 -0.32 c0.22 -0.24 0.32 -0.54 0.32 -0.94 c0 -0.84 -0.5 -1.28 -1.48 -1.28 l-3.3 0 l0 2.54 z M183.712 20 l0 -15.6 l3.98 0 l0 11.74 l7.48 0 l0 3.86 l-11.46 0 z M207.968 20 l0 -15.6 l4 0 l0 15.6 l-4 0 z M231.404 20.3 c-1.94 0 -3.52 -0.42 -4.76 -1.28 s-1.86 -2.02 -1.86 -3.52 l0 -0.18 l-0.02 -0.8 l3.92 0 l0 0.9 c0 0.34 0.24 0.66 0.7 0.96 s1.1 0.46 1.94 0.46 c0.7 0 1.2 -0.1 1.52 -0.28 c0.3 -0.18 0.46 -0.42 0.46 -0.68 c0 -0.32 -0.2 -0.6 -0.58 -0.84 c-0.4 -0.24 -1.1 -0.52 -2.08 -0.86 c-0.62 -0.22 -1.14 -0.4 -1.56 -0.56 s-0.92 -0.4 -1.5 -0.72 c-0.58 -0.3 -1.06 -0.64 -1.4 -0.98 s-0.64 -0.76 -0.9 -1.28 s-0.38 -1.08 -0.38 -1.7 c0 -1.46 0.56 -2.64 1.7 -3.52 s2.6 -1.32 4.4 -1.32 c1.86 0 3.38 0.46 4.58 1.38 s1.8 2.14 1.8 3.66 l0 0.98 l-3.9 0 l0 -0.9 c0 -0.42 -0.2 -0.82 -0.62 -1.16 s-1.02 -0.5 -1.78 -0.5 c-0.62 0 -1.1 0.1 -1.42 0.3 c-0.32 0.22 -0.48 0.46 -0.48 0.76 s0.18 0.54 0.54 0.74 c0.36 0.22 1.04 0.5 2.04 0.84 l1.02 0.36 l1.08 0.44 c0.46 0.22 0.84 0.4 1.12 0.58 s0.6 0.42 0.98 0.72 s0.66 0.62 0.88 0.92 c0.2 0.3 0.38 0.68 0.54 1.1 c0.14 0.42 0.22 0.88 0.22 1.34 c0 1.48 -0.58 2.62 -1.72 3.42 c-1.14 0.82 -2.64 1.22 -4.48 1.22 z M250.4 20 l0 -15.6 l3.98 0 l0 6.06 l6.36 0 l0 -6.06 l4 0 l0 15.6 l-4 0 l0 -5.8 l-6.36 0 l0 5.8 l-3.98 0 z M277.536 20 l0 -15.6 l4 0 l0 15.6 l-4 0 z M294.332 20 l0 -15.6 l3.4 0 l6.96 8.72 l0 -8.72 l3.98 0 l0 15.6 l-3.38 0 l-6.96 -8.7 l0 8.7 l-4 0 z M329.748 20.3 c-2.26 0 -4.2 -0.8 -5.82 -2.38 c-1.64 -1.58 -2.46 -3.5 -2.46 -5.72 s0.82 -4.14 2.46 -5.72 c1.62 -1.58 3.56 -2.38 5.82 -2.38 c2.28 0 4.24 0.8 5.86 2.38 c1.22 1.18 1.98 2.56 2.26 4.1 l-4.18 0 c-0.2 -0.52 -0.52 -1 -0.92 -1.4 c-0.82 -0.82 -1.82 -1.22 -3.02 -1.22 c-1.18 0 -2.18 0.42 -3 1.24 s-1.24 1.82 -1.24 3 s0.42 2.18 1.24 3 s1.82 1.24 3 1.24 c1.2 0 2.2 -0.42 3.02 -1.24 l0.24 -0.26 l-3.8 0 l0.02 -3.02 l8.72 0 l0 1.36 c-0.22 1.78 -0.98 3.32 -2.34 4.64 c-1.62 1.58 -3.58 2.38 -5.86 2.38 z M375.58 20.3 c-1.94 0 -3.52 -0.42 -4.76 -1.28 s-1.86 -2.02 -1.86 -3.52 l0 -0.18 l-0.02 -0.8 l3.92 0 l0 0.9 c0 0.34 0.24 0.66 0.7 0.96 s1.1 0.46 1.94 0.46 c0.7 0 1.2 -0.1 1.52 -0.28 c0.3 -0.18 0.46 -0.42 0.46 -0.68 c0 -0.32 -0.2 -0.6 -0.58 -0.84 c-0.4 -0.24 -1.1 -0.52 -2.08 -0.86 c-0.62 -0.22 -1.14 -0.4 -1.56 -0.56 s-0.92 -0.4 -1.5 -0.72 c-0.58 -0.3 -1.06 -0.64 -1.4 -0.98 s-0.64 -0.76 -0.9 -1.28 s-0.38 -1.08 -0.38 -1.7 c0 -1.46 0.56 -2.64 1.7 -3.52 s2.6 -1.32 4.4 -1.32 c1.86 0 3.38 0.46 4.58 1.38 s1.8 2.14 1.8 3.66 l0 0.98 l-3.9 0 l0 -0.9 c0 -0.42 -0.2 -0.82 -0.62 -1.16 s-1.02 -0.5 -1.78 -0.5 c-0.62 0 -1.1 0.1 -1.42 0.3 c-0.32 0.22 -0.48 0.46 -0.48 0.76 s0.18 0.54 0.54 0.74 c0.36 0.22 1.04 0.5 2.04 0.84 l1.02 0.36 l1.08 0.44 c0.46 0.22 0.84 0.4 1.12 0.58 s0.6 0.42 0.98 0.72 s0.66 0.62 0.88 0.92 c0.2 0.3 0.38 0.68 0.54 1.1 c0.14 0.42 0.22 0.88 0.22 1.34 c0 1.48 -0.58 2.62 -1.72 3.42 c-1.14 0.82 -2.64 1.22 -4.48 1.22 z M394.576 20 l0 -15.6 l11.98 0 l0 3.88 l-7.98 0 l0 2.24 l5.62 0 l0 3.62 l-5.62 0 l0 2 l7.98 0 l0 3.86 l-11.98 0 z M419.352 20 l0 -15.6 l6.88 0 c1.96 0 3.48 0.5 4.54 1.5 c1.06 1.02 1.58 2.28 1.58 3.74 c0 1.54 -0.52 2.82 -1.58 3.82 c-0.34 0.32 -0.72 0.58 -1.14 0.8 l3.12 5.74 l-3.78 0 l-2.74 -5.02 l-2.88 0 l0 5.02 l-4 0 z M423.352 11.78 l2.66 0 c1.54 0 2.3 -0.7 2.3 -2.12 c0 -0.6 -0.18 -1.08 -0.56 -1.48 s-0.96 -0.58 -1.74 -0.58 l-2.66 0 l0 4.18 z M451.848 20 l-6.3 -15.6 l4.36 0 l3.92 10.48 l3.94 -10.48 l4.36 0 l-6.32 15.6 l-3.96 0 z M474.924 20 l0 -15.6 l4 0 l0 15.6 l-4 0 z M500 20.3 c-2.26 0 -4.2 -0.8 -5.82 -2.38 c-1.64 -1.58 -2.46 -3.5 -2.46 -5.72 s0.82 -4.14 2.46 -5.72 c1.62 -1.58 3.56 -2.38 5.82 -2.38 c2.28 0 4.24 0.8 5.86 2.38 c1.22 1.18 1.98 2.56 2.26 4.1 l-4.18 0 c-0.2 -0.52 -0.52 -1 -0.92 -1.4 c-0.82 -0.82 -1.82 -1.22 -3.02 -1.22 c-1.18 0 -2.18 0.42 -3 1.24 s-1.24 1.82 -1.24 3 s0.42 2.18 1.24 3 s1.82 1.24 3 1.24 c1.2 0 2.2 -0.42 3.02 -1.24 c0.56 -0.56 0.92 -1.18 1.1 -1.92 l4.08 0 c-0.22 1.78 -0.98 3.32 -2.34 4.64 c-1.62 1.58 -3.58 2.38 -5.86 2.38 z M520.996 20 l0 -15.6 l11.98 0 l0 3.88 l-7.98 0 l0 2.24 l5.62 0 l0 3.62 l-5.62 0 l0 2 l7.98 0 l0 3.86 l-11.98 0 z M552.412 20.3 c-1.94 0 -3.52 -0.42 -4.76 -1.28 s-1.86 -2.02 -1.86 -3.52 l0 -0.18 l-0.02 -0.8 l3.92 0 l0 0.9 c0 0.34 0.24 0.66 0.7 0.96 s1.1 0.46 1.94 0.46 c0.7 0 1.2 -0.1 1.52 -0.28 c0.3 -0.18 0.46 -0.42 0.46 -0.68 c0 -0.32 -0.2 -0.6 -0.58 -0.84 c-0.4 -0.24 -1.1 -0.52 -2.08 -0.86 c-0.62 -0.22 -1.14 -0.4 -1.56 -0.56 s-0.92 -0.4 -1.5 -0.72 c-0.58 -0.3 -1.06 -0.64 -1.4 -0.98 s-0.64 -0.76 -0.9 -1.28 s-0.38 -1.08 -0.38 -1.7 c0 -1.46 0.56 -2.64 1.7 -3.52 s2.6 -1.32 4.4 -1.32 c1.86 0 3.38 0.46 4.58 1.38 s1.8 2.14 1.8 3.66 l0 0.98 l-3.9 0 l0 -0.9 c0 -0.42 -0.2 -0.82 -0.62 -1.16 s-1.02 -0.5 -1.78 -0.5 c-0.62 0 -1.1 0.1 -1.42 0.3 c-0.32 0.22 -0.48 0.46 -0.48 0.76 s0.18 0.54 0.54 0.74 c0.36 0.22 1.04 0.5 2.04 0.84 l1.02 0.36 l1.08 0.44 c0.46 0.22 0.84 0.4 1.12 0.58 s0.6 0.42 0.98 0.72 s0.66 0.62 0.88 0.92 c0.2 0.3 0.38 0.68 0.54 1.1 c0.14 0.42 0.22 0.88 0.22 1.34 c0 1.48 -0.58 2.62 -1.72 3.42 c-1.14 0.82 -2.64 1.22 -4.48 1.22 z"></path></g></svg>